<?xml version="1.0" encoding="utf-8"?>
<!-- Generator: Adobe Illustrator 20.1.0, SVG Export Plug-In . SVG Version: 6.00 Build 0)  -->
<svg version="1.1" id="graphics-keys" xmlns="http://www.w3.org/2000/svg" xmlns:xlink="http://www.w3.org/1999/xlink" x="0px"
	 y="0px" viewBox="0 0 1002.6 466" style="enable-background:new 0 0 1002.6 466;" xml:space="preserve">

<style type="text/css">

</style>
<style type="text/css">
	.st0{fill:#DF1405;}
	.st1{fill:#FFFFFF;}
	.st2{font-family:'gilroy-regular';}
	.st3{font-size:24.96px;}
	.st4{fill:#F5F5F5;}
	.st5{fill:#9C9A9A;}
	.st6{font-size:22.88px;}
	.st7{font-family:'Roboto-Regular';}
	.st8{fill:#DF7100;}
	.st9{fill:#F2A359;}
	.st10{fill:#F2E600;}
	.st11{fill:#A3C600;}
	.st12{fill:#1DA422;}
	.st13{fill:#008430;}
	.st14{fill:#007AB1;}
	.st15{fill:#009DE3;}
</style>
<title>graphic-key</title>
<g id="G">
	<path id="bg_-_G" class="st0" d="M228.8,443.1l-22.9-18.7v37.4L228.8,443.1 M124.8,424.4h81.1v37.4h-81.1V424.4L124.8,424.4z
		 M208,443.1l-22.9-18.7v37.4L208,443.1 M104,424.4h81.1v37.4H104V424.4L104,424.4z M208,443.1l-22.9-18.7v37.4L208,443.1
		 M104,424.4h81.1v37.4H104V424.4L104,424.4z M187.2,443.1l-22.9-18.7v37.4L187.2,443.1 M83.2,424.4h81.2v37.4H83.2L83.2,424.4
		L83.2,424.4z M208,443.1l-22.9-18.7v37.4L208,443.1 M104,424.4h81.1v37.4H104V424.4L104,424.4z M187.2,443.1l-22.9-18.7v37.4
		L187.2,443.1 M83.2,424.4h81.2v37.4H83.2L83.2,424.4L83.2,424.4z M187.2,443.1l-22.9-18.7v37.4L187.2,443.1 M83.2,424.4h81.2v37.4
		H83.2L83.2,424.4L83.2,424.4z M166.4,443.1l-22.9-18.7v37.4L166.4,443.1 M62.4,424.4h81.1v37.4H62.4L62.4,424.4L62.4,424.4z
		 M208,443.1l-22.9-18.7v37.4L208,443.1 M104,424.4h81.1v37.4H104V424.4L104,424.4z M187.2,443.1l-22.9-18.7v37.4L187.2,443.1
		 M83.2,424.4h81.2v37.4H83.2L83.2,424.4L83.2,424.4z M187.2,443.1l-22.9-18.7v37.4L187.2,443.1 M83.2,424.4h81.2v37.4H83.2
		L83.2,424.4L83.2,424.4z M166.4,443.1l-22.9-18.7v37.4L166.4,443.1 M62.4,424.4h81.1v37.4H62.4L62.4,424.4L62.4,424.4z
		 M187.2,443.1l-22.9-18.7v37.4L187.2,443.1 M83.2,424.4h81.2v37.4H83.2L83.2,424.4L83.2,424.4z M166.4,443.1l-22.9-18.7v37.4
		L166.4,443.1 M62.4,424.4h81.1v37.4H62.4L62.4,424.4L62.4,424.4z M166.4,443.1l-22.9-18.7v37.4L166.4,443.1 M62.4,424.4h81.1v37.4
		H62.4L62.4,424.4L62.4,424.4z M145.6,443.1l-22.9-18.7v37.4L145.6,443.1 M41.6,424.4h81.1v37.4H41.6L41.6,424.4L41.6,424.4z
		 M187.2,443.1l-22.9-18.7v37.4L187.2,443.1 M83.2,424.4h81.2v37.4H83.2L83.2,424.4L83.2,424.4z M166.4,443.1l-22.9-18.7v37.4
		L166.4,443.1 M62.4,424.4h81.1v37.4H62.4L62.4,424.4L62.4,424.4z M166.4,443.1l-22.9-18.7v37.4L166.4,443.1 M62.4,424.4h81.1v37.4
		H62.4L62.4,424.4L62.4,424.4z M145.6,443.1l-22.9-18.7v37.4L145.6,443.1 M41.6,424.4h81.1v37.4H41.6L41.6,424.4L41.6,424.4z
		 M166.4,443.1l-22.9-18.7v37.4L166.4,443.1 M62.4,424.4h81.1v37.4H62.4L62.4,424.4L62.4,424.4z M145.6,443.1l-22.9-18.7v37.4
		L145.6,443.1 M41.6,424.4h81.1v37.4H41.6L41.6,424.4L41.6,424.4z M145.6,443.1l-22.9-18.7v37.4L145.6,443.1 M41.6,424.4h81.1v37.4
		H41.6L41.6,424.4L41.6,424.4z M124.8,443.1l-22.9-18.7v37.4L124.8,443.1 M20.8,424.4h81.2v37.4H20.8L20.8,424.4L20.8,424.4z
		 M166.4,443.1l-22.9-18.7v37.4L166.4,443.1 M62.4,424.4h81.1v37.4H62.4L62.4,424.4L62.4,424.4z M145.6,443.1l-22.9-18.7v37.4
		L145.6,443.1 M41.6,424.4h81.1v37.4H41.6L41.6,424.4L41.6,424.4z M145.6,443.1l-22.9-18.7v37.4L145.6,443.1 M41.6,424.4h81.1v37.4
		H41.6L41.6,424.4L41.6,424.4z M124.8,443.1l-22.9-18.7v37.4L124.8,443.1 M20.8,424.4h81.2v37.4H20.8L20.8,424.4L20.8,424.4z
		 M145.6,443.1l-22.9-18.7v37.4L145.6,443.1 M41.6,424.4h81.1v37.4H41.6L41.6,424.4L41.6,424.4z M124.8,443.1l-22.9-18.7v37.4
		L124.8,443.1 M20.8,424.4h81.2v37.4H20.8L20.8,424.4L20.8,424.4z M124.8,443.1l-22.9-18.7v37.4L124.8,443.1 M20.8,424.4h81.2v37.4
		H20.8L20.8,424.4L20.8,424.4z M104,443.1l-22.9-18.7v37.4L104,443.1 M0,424.4h81.2v37.4H0V424.4z"/>
	<text transform="matrix(1 0 0 1 12.48 452.16)" class="st1 st2 st3">G</text>
	<path id="_underline" class="st4" d="M0,466v-2.1h1002.6v2.1H0z"/>
	<g id="_250_kWh_m2_Jahr">
		<text transform="matrix(1 0 0 1 311.87 445)" class="st5 st2 st6">&lt; </text>
		<text transform="matrix(1 0 0 1 329.49 445)" class="st5 st2 st6">2</text>
		<text transform="matrix(1 0 0 1 341.38 445)" class="st5 st2 st6">5</text>
		<text transform="matrix(1 0 0 1 353.28 445)" class="st5 st2 st6">0 k</text>
		<text transform="matrix(1 0 0 1 384.72 445)" class="st5 st2 st6">W</text>
		<text transform="matrix(1 0 0 1 407.14 445)" class="st5 st2 st6">h/m2</text>
		<text transform="matrix(1 0 0 1 469.17 445)" class="st5 st7 st6">*</text>
		<text transform="matrix(1 0 0 1 479.04 445)" class="st5 st2 st6">J</text>
		<text transform="matrix(1 0 0 1 491.58 445)" class="st5 st2 st6">ahr</text>
	</g>
	<text transform="matrix(1 0 0 1 578.12 445)" class="st5 st2 st6">al</text>
	<text transform="matrix(1 0 0 1 597.38 445)" class="st5 st2 st6">t</text>
	<text transform="matrix(1 0 0 1 605.28 445)" class="st5 st2 st6">e</text>
	<text transform="matrix(1 0 0 1 617.73 445)" class="st5 st2 st6">, un</text>
	<text transform="matrix(1 0 0 1 654.47 445)" class="st5 st2 st6">s</text>
	<text transform="matrix(1 0 0 1 664.51 445)" class="st5 st2 st6">anie</text>
	<text transform="matrix(1 0 0 1 709.91 445)" class="st5 st2 st6">r</text>
	<text transform="matrix(1 0 0 1 717.32 445)" class="st5 st2 st6">t</text>
	<text transform="matrix(1 0 0 1 725.21 445)" class="st5 st2 st6">e Gebäude</text>
</g>
<g id="F">
	<path id="bg_-_E" class="st8" d="M228.8,389l-22.9-18.7v37.4L228.8,389 M124.8,370.3h81.1v37.4h-81.1V370.3L124.8,370.3z M208,389
		l-22.9-18.7v37.4L208,389 M104,370.3h81.1v37.4H104V370.3z M208,389l-22.9-18.7v37.4L208,389 M104,370.3h81.1v37.4H104V370.3z
		 M187.2,389l-22.9-18.7v37.4L187.2,389 M83.2,370.3h81.2v37.4H83.2L83.2,370.3z M208,389l-22.9-18.7v37.4L208,389 M104,370.3h81.1
		v37.4H104V370.3z M187.2,389l-22.9-18.7v37.4L187.2,389 M83.2,370.3h81.2v37.4H83.2L83.2,370.3z M187.2,389l-22.9-18.7v37.4
		L187.2,389 M83.2,370.3h81.2v37.4H83.2L83.2,370.3z M166.4,389l-22.9-18.7v37.4L166.4,389 M62.4,370.3h81.1v37.4H62.4L62.4,370.3
		L62.4,370.3z M208,389l-22.9-18.7v37.4L208,389 M104,370.3h81.1v37.4H104V370.3z M187.2,389l-22.9-18.7v37.4L187.2,389 M83.2,370.3
		h81.2v37.4H83.2L83.2,370.3z M187.2,389l-22.9-18.7v37.4L187.2,389 M83.2,370.3h81.2v37.4H83.2L83.2,370.3z M166.4,389l-22.9-18.7
		v37.4L166.4,389 M62.4,370.3h81.1v37.4H62.4L62.4,370.3L62.4,370.3z M187.2,389l-22.9-18.7v37.4L187.2,389 M83.2,370.3h81.2v37.4
		H83.2L83.2,370.3z M166.4,389l-22.9-18.7v37.4L166.4,389 M62.4,370.3h81.1v37.4H62.4L62.4,370.3L62.4,370.3z M166.4,389l-22.9-18.7
		v37.4L166.4,389 M62.4,370.3h81.1v37.4H62.4L62.4,370.3L62.4,370.3z M145.6,389l-22.9-18.7v37.4L145.6,389 M41.6,370.3h81.1v37.4
		H41.6L41.6,370.3z M187.2,389l-22.9-18.7v37.4L187.2,389 M83.2,370.3h81.2v37.4H83.2L83.2,370.3z M166.4,389l-22.9-18.7v37.4
		L166.4,389 M62.4,370.3h81.1v37.4H62.4L62.4,370.3L62.4,370.3z M166.4,389l-22.9-18.7v37.4L166.4,389 M62.4,370.3h81.1v37.4H62.4
		L62.4,370.3L62.4,370.3z M145.6,389l-22.9-18.7v37.4L145.6,389 M41.6,370.3h81.1v37.4H41.6L41.6,370.3z M166.4,389l-22.9-18.7v37.4
		L166.4,389 M62.4,370.3h81.1v37.4H62.4L62.4,370.3L62.4,370.3z M145.6,389l-22.9-18.7v37.4L145.6,389 M41.6,370.3h81.1v37.4H41.6
		L41.6,370.3z M145.6,389l-22.9-18.7v37.4L145.6,389 M41.6,370.3h81.1v37.4H41.6L41.6,370.3z M124.8,389l-22.9-18.7v37.4L124.8,389
		 M20.8,370.3H102v37.4H20.8L20.8,370.3z M166.4,389l-22.9-18.7v37.4L166.4,389 M62.4,370.3h81.1v37.4H62.4L62.4,370.3L62.4,370.3z
		 M145.6,389l-22.9-18.7v37.4L145.6,389 M41.6,370.3h81.1v37.4H41.6L41.6,370.3z M145.6,389l-22.9-18.7v37.4L145.6,389 M41.6,370.3
		h81.1v37.4H41.6L41.6,370.3z M124.8,389l-22.9-18.7v37.4L124.8,389 M20.8,370.3H102v37.4H20.8L20.8,370.3z M145.6,389l-22.9-18.7
		v37.4L145.6,389 M41.6,370.3h81.1v37.4H41.6L41.6,370.3z M124.8,389l-22.9-18.7v37.4L124.8,389 M20.8,370.3H102v37.4H20.8
		L20.8,370.3z M124.8,389l-22.9-18.7v37.4L124.8,389 M20.8,370.3H102v37.4H20.8L20.8,370.3z M104,389l-22.9-18.7v37.4L104,389
		 M0,370.3h81.2v37.4H0V370.3z"/>
	<text transform="matrix(1 0 0 1 12.48 397.08)" class="st1 st2 st3">F</text>
	<path id="_underline-2" class="st4" d="M0,411.9v-2.1h1002.6v2.1H0z"/>
	<g id="_250_kWh_m2_Jahr-2">
		<text transform="matrix(1 0 0 1 311.87 390.91)" class="st5 st2 st6">&lt; </text>
		<text transform="matrix(1 0 0 1 329.49 390.91)" class="st5 st2 st6">2</text>
		<text transform="matrix(1 0 0 1 341.38 390.91)" class="st5 st2 st6">5</text>
		<text transform="matrix(1 0 0 1 353.28 390.91)" class="st5 st2 st6">0 k</text>
		<text transform="matrix(1 0 0 1 384.72 390.91)" class="st5 st2 st6">W</text>
		<text transform="matrix(1 0 0 1 407.14 390.91)" class="st5 st2 st6">h/m2</text>
		<text transform="matrix(1 0 0 1 469.17 390.91)" class="st5 st7 st6">*</text>
		<text transform="matrix(1 0 0 1 479.04 390.91)" class="st5 st2 st6">J</text>
		<text transform="matrix(1 0 0 1 491.58 390.91)" class="st5 st2 st6">ahr</text>
	</g>
	<text transform="matrix(1 0 0 1 578.12 390.91)" class="st5 st2 st6">al</text>
	<text transform="matrix(1 0 0 1 597.38 390.91)" class="st5 st2 st6">t</text>
	<text transform="matrix(1 0 0 1 605.28 390.91)" class="st5 st2 st6">e</text>
	<text transform="matrix(1 0 0 1 617.73 390.91)" class="st5 st2 st6">, un</text>
	<text transform="matrix(1 0 0 1 654.47 390.91)" class="st5 st2 st6">s</text>
	<text transform="matrix(1 0 0 1 664.51 390.91)" class="st5 st2 st6">anie</text>
	<text transform="matrix(1 0 0 1 709.91 390.91)" class="st5 st2 st6">r</text>
	<text transform="matrix(1 0 0 1 717.32 390.91)" class="st5 st2 st6">t</text>
	<text transform="matrix(1 0 0 1 725.21 390.91)" class="st5 st2 st6">e Gebäude</text>
</g>
<g id="E">
	<path id="bg_-_E-2" class="st9" d="M228.8,334.9l-22.9-18.7v37.4L228.8,334.9 M124.8,316.2h81.1v37.5h-81.1V316.2z M208,334.9
		l-22.9-18.7v37.4L208,334.9 M104,316.2h81.1v37.5H104V316.2z M208,334.9l-22.9-18.7v37.4L208,334.9 M104,316.2h81.1v37.5H104V316.2
		z M187.2,334.9l-22.9-18.7v37.4L187.2,334.9 M83.2,316.2h81.2v37.5H83.2L83.2,316.2z M208,334.9l-22.9-18.7v37.4L208,334.9
		 M104,316.2h81.1v37.5H104V316.2z M187.2,334.9l-22.9-18.7v37.4L187.2,334.9 M83.2,316.2h81.2v37.5H83.2L83.2,316.2z M187.2,334.9
		l-22.9-18.7v37.4L187.2,334.9 M83.2,316.2h81.2v37.5H83.2L83.2,316.2z M166.4,334.9l-22.9-18.7v37.4L166.4,334.9 M62.4,316.2h81.1
		v37.5H62.4L62.4,316.2L62.4,316.2z M208,334.9l-22.9-18.7v37.4L208,334.9 M104,316.2h81.1v37.5H104V316.2z M187.2,334.9l-22.9-18.7
		v37.4L187.2,334.9 M83.2,316.2h81.2v37.5H83.2L83.2,316.2z M187.2,334.9l-22.9-18.7v37.4L187.2,334.9 M83.2,316.2h81.2v37.5H83.2
		L83.2,316.2z M166.4,334.9l-22.9-18.7v37.4L166.4,334.9 M62.4,316.2h81.1v37.5H62.4L62.4,316.2L62.4,316.2z M187.2,334.9
		l-22.9-18.7v37.4L187.2,334.9 M83.2,316.2h81.2v37.5H83.2L83.2,316.2z M166.4,334.9l-22.9-18.7v37.4L166.4,334.9 M62.4,316.2h81.1
		v37.5H62.4L62.4,316.2L62.4,316.2z M166.4,334.9l-22.9-18.7v37.4L166.4,334.9 M62.4,316.2h81.1v37.5H62.4L62.4,316.2L62.4,316.2z
		 M145.6,334.9l-22.9-18.7v37.4L145.6,334.9 M41.6,316.2h81.1v37.5H41.6L41.6,316.2z M187.2,334.9l-22.9-18.7v37.4L187.2,334.9
		 M83.2,316.2h81.2v37.5H83.2V316.2z M166.4,334.9l-22.9-18.7v37.4L166.4,334.9 M62.4,316.2h81.1v37.5H62.4
		C62.4,353.7,62.4,316.2,62.4,316.2z M166.4,334.9l-22.9-18.7v37.4L166.4,334.9 M62.4,316.2h81.1v37.5H62.4
		C62.4,353.7,62.4,316.2,62.4,316.2z M145.6,334.9l-22.9-18.7v37.4L145.6,334.9 M41.6,316.2h81.1v37.5H41.6L41.6,316.2z
		 M166.4,334.9l-22.9-18.7v37.4L166.4,334.9 M62.4,316.2h81.1v37.5H62.4L62.4,316.2z M145.6,334.9l-22.9-18.7v37.4L145.6,334.9
		 M41.6,316.2h81.1v37.5h-81L41.6,316.2z M145.6,334.9l-22.9-18.7v37.4L145.6,334.9 M41.6,316.2h81.1v37.5h-81L41.6,316.2z
		 M124.8,334.9l-22.9-18.7v37.4L124.8,334.9 M20.8,316.2h81.2v37.5H20.8L20.8,316.2z M166.4,334.9l-22.9-18.7v37.4L166.4,334.9
		 M62.4,316.2h81.1v37.5H62.4L62.4,316.2z M145.6,334.9l-22.9-18.7v37.4L145.6,334.9 M41.6,316.2h81.1v37.5h-81L41.6,316.2z
		 M145.6,334.9l-22.9-18.7v37.4L145.6,334.9 M41.6,316.2h81.1v37.5h-81L41.6,316.2z M124.8,334.9l-22.9-18.7v37.4L124.8,334.9
		 M20.8,316.2h81.2v37.5H20.8L20.8,316.2z M145.6,334.9l-22.9-18.7v37.4L145.6,334.9 M41.6,316.2h81.1v37.5H41.6L41.6,316.2z
		 M124.8,334.9l-22.9-18.7v37.4L124.8,334.9 M20.8,316.2h81.2v37.5H20.8L20.8,316.2z M124.8,334.9l-22.9-18.7v37.4L124.8,334.9
		 M20.8,316.2h81.2v37.5H20.8L20.8,316.2z M104,334.9l-22.9-18.7v37.4L104,334.9 M0,316.2h81.2v37.5H0V316.2z"/>
	<text transform="matrix(1 0 0 1 12.48 343.99)" class="st1 st2 st3">E</text>
	<path id="_underline-3" class="st4" d="M0,357.8v-2.1h1002.6v2.1H0z"/>
	<g id="_200_kWh_m2_Jahr">
		<text transform="matrix(1 0 0 1 311.87 336.83)" class="st5 st2 st6">&lt; </text>
		<text transform="matrix(1 0 0 1 329.49 336.83)" class="st5 st2 st6">2</text>
		<text transform="matrix(1 0 0 1 341.27 336.83)" class="st5 st2 st6">00 k</text>
		<text transform="matrix(1 0 0 1 387.12 336.83)" class="st5 st2 st6">W</text>
		<text transform="matrix(1 0 0 1 409.54 336.83)" class="st5 st2 st6">h/m2</text>
		<text transform="matrix(1 0 0 1 471.57 336.83)" class="st5 st7 st6">*</text>
		<text transform="matrix(1 0 0 1 481.45 336.83)" class="st5 st2 st6">J</text>
		<text transform="matrix(1 0 0 1 493.99 336.83)" class="st5 st2 st6">ahr</text>
	</g>
	<text transform="matrix(1 0 0 1 578.12 336.83)" class="st5 st2 st6">al</text>
	<text transform="matrix(1 0 0 1 597.38 336.83)" class="st5 st2 st6">t</text>
	<text transform="matrix(1 0 0 1 605.28 336.83)" class="st5 st2 st6">e</text>
	<text transform="matrix(1 0 0 1 617.73 336.83)" class="st5 st2 st6">, un</text>
	<text transform="matrix(1 0 0 1 654.47 336.83)" class="st5 st2 st6">s</text>
	<text transform="matrix(1 0 0 1 664.51 336.83)" class="st5 st2 st6">anie</text>
	<text transform="matrix(1 0 0 1 709.91 336.83)" class="st5 st2 st6">r</text>
	<text transform="matrix(1 0 0 1 717.32 336.83)" class="st5 st2 st6">t</text>
	<text transform="matrix(1 0 0 1 725.21 336.83)" class="st5 st2 st6">e Gebäude</text>
</g>
<g id="D">
	<path id="bg_-_D" class="st10" d="M208,280.8l-22.9-18.7v37.4L208,280.8 M104,262.1h81.1v37.5H104V262.1z M187.2,280.9l-22.9-18.7
		v37.4L187.2,280.9 M83.2,262.1h81.2v37.5H83.2L83.2,262.1z M187.2,280.9l-22.9-18.7v37.4L187.2,280.9 M83.2,262.1h81.2v37.5H83.2
		L83.2,262.1z M166.4,280.9l-22.9-18.7v37.4L166.4,280.9 M62.4,262.1h81.1v37.5H62.4L62.4,262.1L62.4,262.1z M187.2,280.9
		l-22.9-18.7v37.4L187.2,280.9 M83.2,262.1h81.2v37.5H83.2L83.2,262.1z M166.4,280.9l-22.9-18.7v37.4L166.4,280.9 M62.4,262.1h81.1
		v37.5H62.4L62.4,262.1L62.4,262.1z M166.4,280.9l-22.9-18.7v37.4L166.4,280.9 M62.4,262.1h81.1v37.5H62.4L62.4,262.1L62.4,262.1z
		 M145.6,280.9l-22.9-18.7v37.4L145.6,280.9 M41.6,262.1h81.1v37.5H41.6L41.6,262.1z M187.2,280.9l-22.9-18.7v37.4L187.2,280.9
		 M83.2,262.1h81.2v37.5H83.2V262.1z M166.4,280.9l-22.9-18.7v37.4L166.4,280.9 M62.4,262.1h81.1v37.5H62.4
		C62.4,299.6,62.4,262.1,62.4,262.1z M166.4,280.9l-22.9-18.7v37.4L166.4,280.9 M62.4,262.1h81.1v37.5H62.4
		C62.4,299.6,62.4,262.1,62.4,262.1z M145.6,280.9l-22.9-18.7v37.4L145.6,280.9 M41.6,262.1h81.1v37.5H41.6L41.6,262.1z
		 M166.4,280.9l-22.9-18.7v37.4L166.4,280.9 M62.4,262.1h81.1v37.5H62.4L62.4,262.1z M145.6,280.9l-22.9-18.7v37.4L145.6,280.9
		 M41.6,262.1h81.1v37.5h-81L41.6,262.1z M145.6,280.9l-22.9-18.7v37.4L145.6,280.9 M41.6,262.1h81.1v37.5h-81L41.6,262.1z
		 M124.8,280.9l-22.9-18.7v37.4L124.8,280.9 M20.8,262.1h81.2v37.5H20.8L20.8,262.1z M187.2,280.9l-22.9-18.7v37.4L187.2,280.9
		 M83.2,262.1h81.2v37.5H83.2L83.2,262.1z M166.4,280.9l-22.9-18.7v37.4L166.4,280.9 M62.4,262.1h81.1v37.5H62.4L62.4,262.1
		L62.4,262.1z M166.4,280.9l-22.9-18.7v37.4L166.4,280.9 M62.4,262.1h81.1v37.5H62.4L62.4,262.1L62.4,262.1z M145.6,280.9
		l-22.9-18.7v37.4L145.6,280.9 M41.6,262.1h81.1v37.5h-81L41.6,262.1z M166.4,280.9l-22.9-18.7v37.4L166.4,280.9 M62.4,262.1h81.1
		v37.5H62.4L62.4,262.1z M145.6,280.9l-22.9-18.7v37.4L145.6,280.9 M41.6,262.1h81.1v37.5h-81L41.6,262.1z M145.6,280.9l-22.9-18.7
		v37.4L145.6,280.9 M41.6,262.1h81.1v37.5h-81L41.6,262.1z M124.7,280.9l-22.9-18.7v37.4L124.7,280.9 M20.7,262.1h81.2v37.5H20.8
		L20.7,262.1z M166.4,280.9l-22.9-18.7v37.4L166.4,280.9 M62.4,262.1h81.1v37.5H62.4L62.4,262.1z M145.6,280.9l-22.9-18.7v37.4
		L145.6,280.9 M41.6,262.1h81.1v37.5h-81L41.6,262.1z M145.6,280.9l-22.9-18.7v37.4L145.6,280.9 M41.6,262.1h81.1v37.5h-81
		L41.6,262.1z M124.7,280.9l-22.9-18.7v37.4L124.7,280.9 M20.7,262.1h81.2v37.5H20.8L20.7,262.1z M145.6,280.8l-22.9-18.7v37.4
		L145.6,280.8 M41.6,262.1h81.1v37.5H41.6L41.6,262.1z M124.8,280.8l-22.9-18.7v37.4L124.8,280.8 M20.8,262.1h81.2v37.5H20.8
		L20.8,262.1z M124.8,280.8l-22.9-18.7v37.4L124.8,280.8 M20.8,262.1h81.2v37.5H20.8L20.8,262.1z M104,280.8l-22.9-18.7v37.4
		L104,280.8 M0,262.1h81.2v37.5H0V262.1z"/>
	<text transform="matrix(1 0 0 1 12.48 289.9)" class="st1 st2 st3">D</text>
	<path id="_underline-4" class="st4" d="M0,303.7v-2.1h1002.6v2.1H0z"/>
	<g id="_150_kWh_m2_Jahr">
		<text transform="matrix(1 0 0 1 311.87 282.74)" class="st5 st2 st6">&lt; 1</text>
		<text transform="matrix(1 0 0 1 337.27 282.74)" class="st5 st2 st6">5</text>
		<text transform="matrix(1 0 0 1 349.16 282.74)" class="st5 st2 st6">0 k</text>
		<text transform="matrix(1 0 0 1 380.6 282.74)" class="st5 st2 st6">W</text>
		<text transform="matrix(1 0 0 1 403.02 282.74)" class="st5 st2 st6">h/m2</text>
		<text transform="matrix(1 0 0 1 465.05 282.74)" class="st5 st7 st6">*</text>
		<text transform="matrix(1 0 0 1 474.93 282.74)" class="st5 st2 st6">J</text>
		<text transform="matrix(1 0 0 1 487.47 282.74)" class="st5 st2 st6">ahr</text>
	</g>
	<text transform="matrix(1 0 0 1 578.12 282.74)" class="st5 st2 st6">al</text>
	<text transform="matrix(1 0 0 1 597.38 282.74)" class="st5 st2 st6">t</text>
	<text transform="matrix(1 0 0 1 605.28 282.74)" class="st5 st2 st6">e</text>
	<text transform="matrix(1 0 0 1 617.73 282.74)" class="st5 st2 st6">, un</text>
	<text transform="matrix(1 0 0 1 654.47 282.74)" class="st5 st2 st6">s</text>
	<text transform="matrix(1 0 0 1 664.51 282.74)" class="st5 st2 st6">anie</text>
	<text transform="matrix(1 0 0 1 709.91 282.74)" class="st5 st2 st6">r</text>
	<text transform="matrix(1 0 0 1 717.32 282.74)" class="st5 st2 st6">t</text>
	<text transform="matrix(1 0 0 1 725.21 282.74)" class="st5 st2 st6">e Gebäude</text>
</g>
<g id="C">
	<path id="bg_-_C" class="st11" d="M187.2,226.8L164.3,208v37.4L187.2,226.8 M83.2,208h81.2v37.5H83.2V208z M166.4,226.7L143.5,208
		v37.4L166.4,226.7 M62.4,208h81.1v37.5H62.4V208z M166.4,226.7L143.5,208v37.4L166.4,226.7 M62.4,208h81.1v37.5H62.4V208z
		 M145.6,226.7L122.7,208v37.4L145.6,226.7 M41.6,208h81.1v37.5H41.6V208z M166.4,226.7L143.5,208v37.4L166.4,226.7 M62.4,208h81.1
		v37.5H62.4V208z M145.6,226.7L122.7,208v37.4L145.6,226.7 M41.6,208h81.1v37.5H41.6V208z M145.6,226.7L122.7,208v37.4L145.6,226.7
		 M41.6,208h81.1v37.5H41.6V208z M124.8,226.7L101.9,208v37.4L124.8,226.7 M20.8,208h81.2v37.5H20.8V208z M166.4,226.7L143.5,208
		v37.4L166.4,226.7 M62.4,208h81.1v37.5H62.4V208z M145.6,226.7L122.7,208v37.4L145.6,226.7 M41.6,208h81.1v37.5H41.6V208z
		 M145.6,226.7L122.7,208v37.4L145.6,226.7 M41.6,208h81.1v37.5H41.6V208z M124.8,226.7L101.9,208v37.4L124.8,226.7 M20.8,208h81.2
		v37.5H20.8V208z M145.6,226.8L122.7,208v37.4L145.6,226.8 M41.6,208h81.1v37.5H41.6V208z M124.8,226.7L101.9,208v37.4L124.8,226.7
		 M20.8,208h81.2v37.5H20.8V208z M124.8,226.7L101.9,208v37.4L124.8,226.7 M20.8,208h81.2v37.5H20.8V208z M104,226.8L81.1,208v37.4
		L104,226.8 M0,208h81.2v37.5H0V208z"/>
	<text transform="matrix(1 0 0 1 12.48 234.81)" class="st1 st2 st3">C</text>
	<path id="_underline-5" class="st4" d="M0,249.6v-2.1h1002.6v2.1H0z"/>
	<g id="_100_kWh_m2_Jahr">
		<text transform="matrix(1 0 0 1 311.87 230.65)" class="st5 st2 st6">&lt; 100 k</text>
		<text transform="matrix(1 0 0 1 383.12 230.65)" class="st5 st2 st6">W</text>
		<text transform="matrix(1 0 0 1 405.54 230.65)" class="st5 st2 st6">h/m2</text>
		<text transform="matrix(1 0 0 1 467.57 230.65)" class="st5 st7 st6">*</text>
		<text transform="matrix(1 0 0 1 477.44 230.65)" class="st5 st2 st6">J</text>
		<text transform="matrix(1 0 0 1 489.98 230.65)" class="st5 st2 st6">ahr</text>
	</g>
	<text transform="matrix(1 0 0 1 578.12 230.65)" class="st5 st2 st6">t</text>
	<text transform="matrix(1 0 0 1 586.01 230.65)" class="st5 st2 st6">ech. Bau</text>
	<text transform="matrix(1 0 0 1 677.26 230.65)" class="st5 st2 st6">v</text>
	<text transform="matrix(1 0 0 1 688.47 230.65)" class="st5 st2 st6">o</text>
	<text transform="matrix(1 0 0 1 702.33 230.65)" class="st5 st2 st6">r</text>
	<text transform="matrix(1 0 0 1 709.06 230.65)" class="st5 st2 st6">s</text>
	<text transform="matrix(1 0 0 1 719.11 230.65)" class="st5 st2 st6">chri</text>
	<text transform="matrix(1 0 0 1 756.4 230.65)" class="st5 st2 st6">f</text>
	<text transform="matrix(1 0 0 1 764.18 230.65)" class="st5 st2 st6">t </text>
	<text transform="matrix(1 0 0 1 778.48 230.65)" class="st5 st2 st6">2</text>
	<text transform="matrix(1 0 0 1 790.26 230.65)" class="st5 st2 st6">008</text>
</g>
<g id="B">
	<path id="bg_-_B" class="st12" d="M166.4,174.8L143.5,156v37.4L166.4,174.8 M62.4,156h81.1v37.4H62.4V156z M145.6,174.7L122.7,156
		v37.4L145.6,174.7 M41.6,156h81.1v37.4H41.6V156z M145.6,174.7L122.7,156v37.4L145.6,174.7 M41.6,156h81.1v37.4H41.6V156z
		 M124.8,174.7L101.9,156v37.4L124.8,174.7 M20.8,156h81.2v37.4H20.8V156z M145.6,174.8L122.7,156v37.4L145.6,174.8 M41.6,156h81.1
		v37.4H41.6V156z M124.8,174.7L101.9,156v37.4L124.8,174.7 M20.8,156h81.2v37.4H20.8V156z M124.8,174.7L101.9,156v37.4L124.8,174.7
		 M20.8,156h81.2v37.4H20.8V156z M104,174.8L81.1,156v37.4L104,174.8 M0,156h81.2v37.4H0V156z"/>
	<text transform="matrix(1 0 0 1 12.48 182.72)" class="st1 st2 st3">B</text>
	<path id="_underline-6" class="st4" d="M0,197.6v-2.1h1002.6v2.1H0z"/>
	<g id="_50_kWh_m2_Jahr">
		<text transform="matrix(1 0 0 1 311.87 177.64)" class="st5 st2 st6">&lt; </text>
		<text transform="matrix(1 0 0 1 329.49 177.64)" class="st5 st2 st6">5</text>
		<text transform="matrix(1 0 0 1 341.38 177.64)" class="st5 st2 st6">0 k</text>
		<text transform="matrix(1 0 0 1 372.82 177.64)" class="st5 st2 st6">W</text>
		<text transform="matrix(1 0 0 1 395.24 177.64)" class="st5 st2 st6">h/m2</text>
		<text transform="matrix(1 0 0 1 457.27 177.64)" class="st5 st7 st6">*</text>
		<text transform="matrix(1 0 0 1 467.15 177.64)" class="st5 st2 st6">J</text>
		<text transform="matrix(1 0 0 1 479.69 177.64)" class="st5 st2 st6">ahr</text>
	</g>
	<text transform="matrix(1 0 0 1 578.12 177.64)" class="st5 st2 st6">Niedrigene</text>
	<text transform="matrix(1 0 0 1 692.24 177.64)" class="st5 st2 st6">r</text>
	<text transform="matrix(1 0 0 1 698.74 177.64)" class="st5 st2 st6">giehaus</text>
</g>
<g id="A">
	<path id="bg_-_A_" class="st13" d="M145.6,122.7L122.7,104v37.4L145.6,122.7 M41.6,104h81.1v37.4H41.6V104z M124.8,122.7L101.9,104
		v37.4L124.8,122.7 M20.8,104h81.2v37.4H20.8V104z M124.8,122.7L101.9,104v37.4L124.8,122.7 M20.8,104h81.2v37.4H20.8V104z
		 M104,122.7L81.1,104v37.4L104,122.7 M0,104h81.2v37.4H0V104z"/>
	<text transform="matrix(1 0 0 1 12.48 130.71)" class="st1 st2 st3">A</text>
	<path id="_underline-7" class="st4" d="M0,145.6v-2.1h1002.6v2.1H0z"/>
	<g id="_25_kWh_m2_Jahr">
		<text transform="matrix(1 0 0 1 311.87 125.63)" class="st5 st2 st6">&lt; </text>
		<text transform="matrix(1 0 0 1 329.49 125.63)" class="st5 st2 st6">2</text>
		<text transform="matrix(1 0 0 1 341.38 125.63)" class="st5 st2 st6">5 k</text>
		<text transform="matrix(1 0 0 1 370.76 125.63)" class="st5 st2 st6">W</text>
		<text transform="matrix(1 0 0 1 393.19 125.63)" class="st5 st2 st6">h/m2</text>
		<text transform="matrix(1 0 0 1 455.21 125.63)" class="st5 st7 st6">*</text>
		<text transform="matrix(1 0 0 1 465.09 125.63)" class="st5 st2 st6">J</text>
		<text transform="matrix(1 0 0 1 477.63 125.63)" class="st5 st2 st6">ahr</text>
	</g>
	<text transform="matrix(1 0 0 1 578.12 125.63)" class="st5 st2 st6">Niedrig</text>
	<text transform="matrix(1 0 0 1 652.75 125.63)" class="st5 st2 st6">s</text>
	<text transform="matrix(1 0 0 1 662.68 125.63)" class="st5 st2 st6">t</text>
	<text transform="matrix(1 0 0 1 670.58 125.63)" class="st5 st2 st6">ene</text>
	<text transform="matrix(1 0 0 1 710.07 125.63)" class="st5 st2 st6">r</text>
	<text transform="matrix(1 0 0 1 716.57 125.63)" class="st5 st2 st6">giehaus</text>
</g>
<g id="A_">
	<path id="bg_-_A_2" class="st14" d="M124.8,70.7L101.9,52v37.4L124.8,70.7 M20.8,52h81.2v37.5H20.8V52z M104,70.7L81.1,52v37.4
		L104,70.7 M0,52h81.2v37.5H0V52z"/>
	<g id="A_2">
		<text transform="matrix(1 0 0 1 12.48 77.71)" class="st1 st2 st3">A</text>
		<text transform="matrix(1 0 0 1 28.21 77.71)" class="st1 st7 st3">+</text>
	</g>
	<path id="_underline-8" class="st4" d="M0,93.6v-2.1h1002.6v2.1H0z"/>
	<g id="_15_kWh_m2_Jahr">
		<text transform="matrix(1 0 0 1 311.87 73.63)" class="st5 st2 st6">&lt; 15 k</text>
		<text transform="matrix(1 0 0 1 366.64 73.63)" class="st5 st2 st6">W</text>
		<text transform="matrix(1 0 0 1 389.07 73.63)" class="st5 st2 st6">h/m2</text>
		<text transform="matrix(1 0 0 1 451.09 73.63)" class="st5 st7 st6">*</text>
		<text transform="matrix(1 0 0 1 460.97 73.63)" class="st5 st2 st6">J</text>
		<text transform="matrix(1 0 0 1 473.51 73.63)" class="st5 st2 st6">ahr</text>
	</g>
</g>
<g id="A_3">
	<path id="bg_-_A_3" class="st15" d="M104,18.7L81.1,0v37.4L104,18.7 M0,0h81.2v37.4H0V0z"/>
	<g id="A_4">
		<text transform="matrix(1 0 0 1 12.48 26.7)" class="st1 st2 st3">A</text>
		<text transform="matrix(1 0 0 1 28.21 26.7)" class="st1 st7 st3">++</text>
	</g>
	<path id="_underline-9" class="st4" d="M0,41.6v-2.1h1002.6v2.1H0z"/>
	<g id="_10_kWh_m2_Jahr">
		<text transform="matrix(1 0 0 1 311.87 25.62)" class="st5 st2 st6">&lt; 10 k</text>
		<text transform="matrix(1 0 0 1 368.7 25.62)" class="st5 st2 st6">W</text>
		<text transform="matrix(1 0 0 1 391.13 25.62)" class="st5 st2 st6">h/m2</text>
		<text transform="matrix(1 0 0 1 453.15 25.62)" class="st5 st7 st6">*</text>
		<text transform="matrix(1 0 0 1 463.03 25.62)" class="st5 st2 st6">J</text>
		<text transform="matrix(1 0 0 1 475.57 25.62)" class="st5 st2 st6">ahr</text>
	</g>
	<text transform="matrix(1 0 0 1 578.12 25.62)" class="st5 st2 st6">P</text>
	<text transform="matrix(1 0 0 1 590.7 25.62)" class="st5 st2 st6">a</text>
	<text transform="matrix(1 0 0 1 605.26 25.62)" class="st5 st2 st6">s</text>
	<text transform="matrix(1 0 0 1 614.96 25.62)" class="st5 st2 st6">s</text>
	<text transform="matrix(1 0 0 1 625.23 25.62)" class="st5 st2 st6">ivhäu</text>
	<text transform="matrix(1 0 0 1 681.7 25.62)" class="st5 st2 st6">s</text>
	<text transform="matrix(1 0 0 1 691.74 25.62)" class="st5 st2 st6">er</text>
</g>
<rect x="52" y="52" class="st14" width="49.9" height="37.4"/>
<rect x="77" y="156" class="st12" width="47.8" height="35.7"/>
<rect x="61.3" y="52" class="st14" width="41.6" height="36.5"/>
</svg>
